<svg width="40" height="40" viewBox="0 0 40 40" fill="none" xmlns="http://www.w3.org/2000/svg">
<path d="M25.25 14.0001C23.9726 13.9957 22.7068 14.2432 21.5252 14.7285C20.3436 15.2138 19.2692 15.9274 18.3636 16.8283C17.458 17.7293 16.739 18.7999 16.2476 19.9791C15.7562 21.1582 15.5022 22.4226 15.5 23.7001V33.5001C15.5 33.8979 15.658 34.2794 15.9393 34.5607C16.2206 34.842 16.6022 35.0001 17 35.0001H20.5C20.8978 35.0001 21.2794 34.842 21.5607 34.5607C21.842 34.2794 22 33.8979 22 33.5001V23.7001C21.9997 23.2457 22.0951 22.7964 22.2801 22.3814C22.465 21.9665 22.7353 21.5951 23.0734 21.2916C23.4115 20.9881 23.8098 20.7593 24.2423 20.62C24.6747 20.4808 25.1317 20.4342 25.5833 20.4834C26.3933 20.5854 27.1377 20.9812 27.6754 21.5956C28.213 22.21 28.5064 23.0003 28.5 23.8167V33.5001C28.5 33.8979 28.658 34.2794 28.9393 34.5607C29.2206 34.842 29.6022 35.0001 30 35.0001H33.5C33.8978 35.0001 34.2794 34.842 34.5607 34.5607C34.842 34.2794 35 33.8979 35 33.5001V23.7001C34.9978 22.4226 34.7438 21.1582 34.2524 19.9791C33.761 18.7999 33.042 17.7293 32.1364 16.8283C31.2308 15.9274 30.1564 15.2138 28.9748 14.7285C27.7932 14.2432 26.5274 13.9957 25.25 14.0001Z" fill="#231F20"/>
<path d="M11 15.5001H6.5C5.67157 15.5001 5 16.1717 5 17.0001V33.5001C5 34.3286 5.67157 35.0001 6.5 35.0001H11C11.8284 35.0001 12.5 34.3286 12.5 33.5001V17.0001C12.5 16.1717 11.8284 15.5001 11 15.5001Z" fill="#231F20"/>
<path d="M8.75 12.5C10.8211 12.5 12.5 10.8211 12.5 8.75C12.5 6.67893 10.8211 5 8.75 5C6.67893 5 5 6.67893 5 8.75C5 10.8211 6.67893 12.5 8.75 12.5Z" fill="#231F20"/>
</svg>
