<svg width="38" height="39" viewBox="0 0 38 39" fill="none" xmlns="http://www.w3.org/2000/svg">
<path d="M19.0579 3.25C14.9297 3.33542 11.0018 5.15739 8.13565 8.31635C5.26951 11.4753 3.69904 15.7134 3.76864 20.1012V27.625C3.76864 28.9106 4.12732 30.1673 4.79932 31.2362C5.47132 32.3051 6.42646 33.1382 7.54396 33.6302C8.66146 34.1222 9.89112 34.2509 11.0775 34.0001C12.2638 33.7493 13.3535 33.1302 14.2088 32.2212C15.0641 31.3122 15.6466 30.154 15.8825 28.8931C16.1185 27.6322 15.9974 26.3253 15.5345 25.1376C15.0716 23.9498 14.2878 22.9347 13.282 22.2204C12.2763 21.5062 11.0939 21.125 9.88434 21.125C8.80651 21.1298 7.74995 21.4442 6.82649 22.035V20.1012C6.75673 16.5753 8.00499 13.1637 10.2977 10.6142C12.5904 8.06472 15.7406 6.58524 19.0579 6.5C22.3752 6.58524 25.5253 8.06472 27.8181 10.6142C30.1108 13.1637 31.3591 16.5753 31.2893 20.1012V22.035C30.3658 21.4442 29.3093 21.1298 28.2314 21.125C27.0219 21.125 25.8395 21.5062 24.8337 22.2204C23.828 22.9347 23.0442 23.9498 22.5813 25.1376C22.1184 26.3253 21.9973 27.6322 22.2333 28.8931C22.4692 30.154 23.0517 31.3122 23.907 32.2212C24.7623 33.1302 25.852 33.7493 27.0383 34.0001C28.2247 34.2509 29.4543 34.1222 30.5718 33.6302C31.6893 33.1382 32.6445 32.3051 33.3165 31.2362C33.9885 30.1673 34.3472 28.9106 34.3472 27.625V20.1012C34.4167 15.7134 32.8463 11.4753 29.9801 8.31635C27.114 5.15739 23.1861 3.33542 19.0579 3.25Z" fill="#F6EE2D"/>
</svg>
