<svg width="40" height="40" viewBox="0 0 40 40" fill="none" xmlns="http://www.w3.org/2000/svg">
<path d="M20 1.66659C15.1891 1.6177 10.5556 3.48093 7.11791 6.8468C3.68017 10.2127 1.71945 14.8057 1.66669 19.6166C1.68522 23.4185 2.90826 27.1168 5.16012 30.1802C7.41199 33.2435 10.5768 35.5144 14.2 36.6666C15.1167 36.8333 15.45 36.2833 15.45 35.7999C15.45 35.3166 15.45 34.2499 15.45 32.7499C10.35 33.8333 9.26669 30.3499 9.26669 30.3499C8.92718 29.2564 8.20541 28.3217 7.23335 27.7166C5.56669 26.6166 7.36669 26.6333 7.36669 26.6333C7.94277 26.7103 8.49395 26.9167 8.97887 27.2371C9.46379 27.5575 9.86988 27.9835 10.1667 28.4833C10.6839 29.3801 11.5326 30.0381 12.53 30.3155C13.5275 30.5929 14.594 30.4676 15.5 29.9666C15.5932 29.0539 16.0065 28.2037 16.6667 27.5666C12.6 27.1166 8.33335 25.5833 8.33335 18.6999C8.29699 16.9044 8.96043 15.1651 10.1834 13.8499C9.6264 12.3084 9.69216 10.6104 10.3667 9.11659C10.3667 9.11659 11.9167 8.63326 15.3667 10.9499C18.3698 10.1497 21.5302 10.1497 24.5334 10.9499C28.0334 8.63326 29.5334 9.11659 29.5334 9.11659C30.2079 10.6104 30.2736 12.3084 29.7167 13.8499C30.968 15.141 31.6674 16.8686 31.6667 18.6666C31.6667 25.5666 27.3667 27.0833 23.3334 27.5333C23.775 27.962 24.1161 28.4833 24.3323 29.0597C24.5484 29.6361 24.6342 30.2531 24.5834 30.8666V35.7833C24.5834 35.7833 24.9167 36.8333 25.8334 36.6499C29.4463 35.4906 32.6005 33.2192 34.8453 30.1602C37.0902 27.1011 38.311 23.4109 38.3334 19.6166C38.2806 14.8057 36.3199 10.2127 32.8821 6.8468C29.4444 3.48093 24.8109 1.6177 20 1.66659Z" fill="#231F20"/>
</svg>
