<svg width="32" height="34" viewBox="0 0 32 34" fill="none" xmlns="http://www.w3.org/2000/svg">
<path d="M17.3471 11.3333C18.3663 11.3333 19.3438 11.7811 20.0645 12.5781C20.7852 13.3752 21.1901 14.4562 21.1901 15.5833C21.1901 15.9591 21.325 16.3194 21.5653 16.5851C21.8055 16.8507 22.1313 17 22.4711 17C22.8108 17 23.1366 16.8507 23.3769 16.5851C23.6171 16.3194 23.7521 15.9591 23.7521 15.5833C23.7521 13.7047 23.0772 11.903 21.8761 10.5747C20.6749 9.24628 19.0458 8.5 17.3471 8.5C17.0074 8.5 16.6815 8.64926 16.4413 8.91493C16.2011 9.18061 16.0661 9.54094 16.0661 9.91667C16.0661 10.2924 16.2011 10.6527 16.4413 10.9184C16.6815 11.1841 17.0074 11.3333 17.3471 11.3333Z" fill="#F6EE2D"/>
<path d="M17.3471 5.66659C19.7253 5.66659 22.0061 6.71137 23.6877 8.57111C25.3693 10.4308 26.314 12.9532 26.314 15.5833C26.314 15.959 26.449 16.3193 26.6892 16.585C26.9295 16.8507 27.2553 16.9999 27.595 16.9999C27.9348 16.9999 28.2606 16.8507 28.5008 16.585C28.7411 16.3193 28.876 15.959 28.876 15.5833C28.876 12.2017 27.6614 8.95873 25.4993 6.56764C23.3372 4.17655 20.4048 2.83325 17.3471 2.83325C17.0074 2.83325 16.6815 2.98251 16.4413 3.24818C16.2011 3.51386 16.0661 3.8742 16.0661 4.24992C16.0661 4.62564 16.2011 4.98598 16.4413 5.25165C16.6815 5.51733 17.0074 5.66659 17.3471 5.66659Z" fill="#F6EE2D"/>
<path d="M28.5558 22.5391C28.4854 22.3117 28.3637 22.1078 28.2024 21.9467C28.041 21.7856 27.8453 21.6726 27.6335 21.6183L19.9475 19.6774C19.7389 19.6251 19.5218 19.6314 19.3159 19.6957C19.1101 19.7601 18.922 19.8804 18.769 20.0458C18.5897 20.2299 18.5769 20.2441 17.7442 22.0008C14.9814 20.5928 12.7676 18.1345 11.5058 15.0733C13.1327 14.1666 13.1455 14.1666 13.312 13.9541C13.4615 13.7849 13.5703 13.5769 13.6285 13.3493C13.6867 13.1216 13.6924 12.8815 13.6451 12.6508L11.8901 4.24992C11.841 4.01574 11.7388 3.79924 11.5931 3.62079C11.4474 3.44235 11.2631 3.30784 11.0575 3.22992C10.7583 3.11175 10.4494 3.02634 10.1352 2.97492C9.81138 2.8919 9.48099 2.84444 9.14879 2.83325C7.58598 2.83325 6.08719 3.51983 4.98212 4.74194C3.87705 5.96405 3.25623 7.62159 3.25623 9.34992C3.263 15.1338 5.34358 20.6786 9.0417 24.7684C12.7398 28.8581 17.7536 31.1591 22.9835 31.1666C23.7573 31.1666 24.5236 30.998 25.2385 30.6705C25.9534 30.343 26.603 29.863 27.1502 29.2579C27.6973 28.6528 28.1314 27.9344 28.4275 27.1437C28.7236 26.3531 28.8761 25.5057 28.8761 24.6499C28.8765 24.2893 28.8508 23.9293 28.7992 23.5733C28.7454 23.2214 28.6639 22.8753 28.5558 22.5391ZM22.9835 28.3333C18.432 28.3295 14.0679 26.3283 10.8496 22.769C7.63117 19.2098 5.8216 14.3835 5.81821 9.34992C5.82158 8.37419 6.17357 7.43948 6.79744 6.74953C7.42132 6.05958 8.2665 5.67032 9.14879 5.66659H9.57152L10.9422 12.2399L10.2504 12.6366C9.14879 13.2741 8.27771 13.7841 8.73887 14.8891C9.48982 17.2402 10.7049 19.3767 12.2958 21.1435C13.8868 22.9103 15.8136 24.263 17.9364 25.1033C19.0124 25.5849 19.4352 24.6924 20.0116 23.4599L20.3831 22.6808L26.3141 24.1824V24.6499C26.3107 25.6257 25.9587 26.5604 25.3348 27.2503C24.711 27.9403 23.8658 28.3295 22.9835 28.3333Z" fill="#F6EE2D"/>
</svg>
