<svg width="40" height="45" viewBox="0 0 40 45" fill="none" xmlns="http://www.w3.org/2000/svg">
<path d="M20.1157 3.75C16.6315 3.7498 13.288 5.30955 10.812 8.09023C8.33591 10.8709 6.9274 14.6478 6.89256 18.6C6.89256 28.875 18.5455 40.3125 19.0413 40.8C19.3407 41.0905 19.7217 41.2501 20.1157 41.2501C20.5097 41.2501 20.8907 41.0905 21.1901 40.8C21.7686 40.3125 33.3388 28.875 33.3388 18.6C33.304 14.6478 31.8955 10.8709 29.4194 8.09023C26.9434 5.30955 23.5999 3.7498 20.1157 3.75ZM20.1157 36.8438C17.3554 33.8625 10.1983 25.5938 10.1983 18.6C10.1983 15.6163 11.2432 12.7548 13.1031 10.645C14.9629 8.53526 17.4855 7.35 20.1157 7.35C22.7459 7.35 25.2685 8.53526 27.1283 10.645C28.9882 12.7548 30.0331 15.6163 30.0331 18.6C30.0331 25.5375 22.876 33.8625 20.1157 36.8438Z" fill="#F6EE2D"/>
<path d="M20.1157 11.2502C18.9715 11.2502 17.853 11.6351 16.9017 12.3562C15.9503 13.0773 15.2088 14.1022 14.7709 15.3014C14.3331 16.5005 14.2185 17.82 14.4417 19.093C14.665 20.366 15.2159 21.5353 16.025 22.4531C16.8341 23.3709 17.8649 23.9959 18.9871 24.2491C20.1093 24.5024 21.2725 24.3724 22.3296 23.8757C23.3867 23.379 24.2902 22.5379 24.9259 21.4587C25.5615 20.3795 25.9008 19.1107 25.9008 17.8127C25.9008 16.0723 25.2913 14.4031 24.2064 13.1724C23.1215 11.9416 21.65 11.2502 20.1157 11.2502ZM20.1157 20.6252C19.6253 20.6252 19.146 20.4603 18.7383 20.1513C18.3305 19.8422 18.0127 19.403 17.8251 18.889C17.6374 18.3751 17.5883 17.8096 17.684 17.2641C17.7797 16.7185 18.0158 16.2173 18.3625 15.824C18.7093 15.4307 19.1511 15.1628 19.632 15.0543C20.1129 14.9458 20.6115 15.0015 21.0645 15.2143C21.5175 15.4272 21.9048 15.7877 22.1772 16.2502C22.4496 16.7127 22.595 17.2565 22.595 17.8127C22.595 18.5587 22.3338 19.274 21.8689 19.8015C21.4039 20.3289 20.7733 20.6252 20.1157 20.6252Z" fill="#F6EE2D"/>
</svg>
