<svg width="40" height="41" viewBox="0 0 40 41" fill="none" xmlns="http://www.w3.org/2000/svg">
<path d="M31.6666 6.83105H8.33331C7.00723 6.83105 5.73546 7.37082 4.79778 8.33162C3.8601 9.29242 3.33331 10.5955 3.33331 11.9543V29.0318C3.33331 30.3906 3.8601 31.6937 4.79778 32.6545C5.73546 33.6153 7.00723 34.1551 8.33331 34.1551H31.6666C32.9927 34.1551 34.2645 33.6153 35.2022 32.6545C36.1399 31.6937 36.6666 30.3906 36.6666 29.0318V11.9543C36.6666 10.5955 36.1399 9.29242 35.2022 8.33162C34.2645 7.37082 32.9927 6.83105 31.6666 6.83105ZM30.55 10.2466L20 18.3584L9.44998 10.2466H30.55ZM31.6666 30.7396H8.33331C7.89129 30.7396 7.46736 30.5597 7.1548 30.2394C6.84224 29.9191 6.66665 29.4848 6.66665 29.0318V12.3812L19 21.8593C19.2885 22.081 19.6394 22.2008 20 22.2008C20.3606 22.2008 20.7115 22.081 21 21.8593L33.3333 12.3812V29.0318C33.3333 29.4848 33.1577 29.9191 32.8452 30.2394C32.5326 30.5597 32.1087 30.7396 31.6666 30.7396Z" fill="#231F20"/>
</svg>
